<?xml version="1.0" encoding="utf-8"?>
<!-- Generator: Adobe Illustrator 19.1.0, SVG Export Plug-In . SVG Version: 6.00 Build 0)  -->
<svg version="1.1" id="Layer_1" xmlns="http://www.w3.org/2000/svg" xmlns:xlink="http://www.w3.org/1999/xlink" x="0px" y="0px"
	 viewBox="-14 16 50 50" style="enable-background:new -14 16 50 50;" xml:space="preserve">
<style type="text/css">
	.st0{fill:#FFFFFF;}
	.st1{fill:#9F9F9F;}
</style>
<path class="st0" d="M18.7,57.7c3.5-2.3,9.1-2.6,12.5-2c-1,1.2-3.1,4.4-8.6,7.4c-4.4,2.2-8,2.8-10.7,2.9
	C12.7,63.5,13.9,60.4,18.7,57.7z"/>
<path class="st0" d="M-4.8,53c3,2.9,5.3,7.8,5.8,10.9c-1.4-0.6-5.1-2.1-9.1-6.8c-3.2-3.7-4.4-7.3-5-9.7C-10.8,47.9-8.5,49-4.8,53z"
	/>
<path class="st0" d="M31.3,33.3c-1.4-2.6-1.7-6.6-1.6-8.8c0.7,0.8,2.6,2.8,4.4,6.9c1.5,3.2,1.8,7.1,1.8,7.6
	C34.5,38.1,33,36.8,31.3,33.3z"/>
<circle class="st0" cx="10.3" cy="38.1" r="20.6"/>
<g>
	<path class="st1" d="M-12.8,48.6c0-0.1-0.1-0.2-0.1-0.2C-12.9,48.4-12.8,48.5-12.8,48.6z"/>
	<path class="st1" d="M30.3,56.9L30.3,56.9L30.3,56.9z"/>
	<path class="st1" d="M18.7,57.7c3.4-2.3,9.1-2.6,12.5-2c3-4.1,4.8-9.2,4.8-14.7c0-0.7,0-1.3-0.1-2c-1.4-0.9-2.9-2.2-4.6-5.7
		c-1.4-2.6-1.7-6.6-1.6-8.8C25.2,19.3,18.5,16,11,16c-13.8,0-25,11.2-25,25c0,2.2,0.3,4.4,0.9,6.4c2.3,0.5,4.6,1.6,8.3,5.6
		c3,2.9,5.3,7.8,5.8,10.9C4.1,65.2,7.5,66,11,66c0.3,0,0.6,0,0.9,0C12.7,63.4,13.9,60.4,18.7,57.7z M-10.3,38.1
		c0-11.4,9.2-20.6,20.6-20.6s20.6,9.2,20.6,20.6s-9.2,20.6-20.6,20.6S-10.3,49.4-10.3,38.1z"/>
</g>
</svg>
