<?xml version="1.0" encoding="utf-8"?>
<!-- Generator: Adobe Illustrator 19.1.0, SVG Export Plug-In . SVG Version: 6.00 Build 0)  -->
<svg version="1.1" id="Layer_1" xmlns="http://www.w3.org/2000/svg" xmlns:xlink="http://www.w3.org/1999/xlink" x="0px" y="0px"
	 viewBox="0 0 50 50" style="enable-background:new 0 0 50 50;" xml:space="preserve">
<style type="text/css">
	.st0{fill:#FFFFFF;}
	.st1{fill:#E73038;}
	.st2{fill:#5CAA1F;}
</style>
<path class="st0" d="M32.7,41.7c3.5-2.3,9.1-2.6,12.5-2c-1,1.2-3.1,4.4-8.6,7.4c-4.4,2.2-8,2.8-10.7,2.9
	C26.7,47.5,27.9,44.4,32.7,41.7z"/>
<path class="st0" d="M9.2,37c3,2.9,5.3,7.8,5.8,10.9c-1.4-0.6-5.1-2.1-9.1-6.8c-3.2-3.7-4.4-7.3-5-9.7C3.2,31.9,5.5,33,9.2,37z"/>
<path class="st0" d="M45.3,17.3c-1.4-2.6-1.7-6.6-1.6-8.8c0.7,0.8,2.6,2.8,4.4,6.9c1.5,3.2,1.8,7.1,1.8,7.6
	C48.5,22.1,47,20.8,45.3,17.3z"/>
<circle class="st0" cx="24.3" cy="22.1" r="20.6"/>
<g>
	<path class="st1" d="M1.2,32.6c0-0.1-0.1-0.2-0.1-0.2C1.1,32.4,1.2,32.5,1.2,32.6z"/>
	<path class="st1" d="M44.3,40.9L44.3,40.9L44.3,40.9z"/>
	<path class="st2" d="M32.7,41.7c3.4-2.3,9.1-2.6,12.5-2c3-4.1,4.8-9.2,4.8-14.7c0-0.7,0-1.3-0.1-2c-1.4-0.9-2.9-2.2-4.6-5.7
		c-1.4-2.6-1.7-6.6-1.6-8.8C39.2,3.3,32.5,0,25,0C11.2,0,0,11.2,0,25c0,2.2,0.3,4.4,0.9,6.4C3.2,31.9,5.5,33,9.2,37
		c3,2.9,5.3,7.8,5.8,10.9c3.1,1.3,6.5,2.1,10,2.1c0.3,0,0.6,0,0.9,0C26.7,47.4,27.9,44.4,32.7,41.7z M3.7,22.1
		c0-11.4,9.2-20.6,20.6-20.6s20.6,9.2,20.6,20.6s-9.2,20.6-20.6,20.6S3.7,33.4,3.7,22.1z"/>
</g>
</svg>
